 <svg  version="1.0" xmlns="http://www.w3.org/2000/svg"  width="300.000000pt" height="176.000000pt" viewBox="0 0 300.000000 176.000000"  preserveAspectRatio="xMidYMid meet">  <g transform="translate(0.000000,176.000000) scale(0.100000,-0.100000)" fill="#ffffff" stroke="none"> <path d="M573 1272 c-17 -11 -71 -132 -88 -199 -8 -32 -15 -76 -15 -100 0 -31 -5 -45 -19 -52 -18 -10 -20 -19 -41 -188 -5 -40 -15 -88 -23 -105 -24 -57 -36 -121 -26 -140 18 -33 105 -20 136 21 7 9 20 51 30 93 l17 77 76 25 c41 13 91 26 110 28 33 3 37 0 62 -47 19 -33 27 -62 26 -85 -3 -30 0 -35 20 -38 33 -5 162 57 162 77 0 10 -19 44 -43 76 -24 33 -63 98 -86 145 -24 46 -49 93 -57 104 -8 11 -14 27 -14 35 0 7 -24 50 -54 95 -42 64 -97 157 -102 173 -2 8 -61 12 -71 5z m88 -337 c17 -36 29 -72 26 -79 -3 -7 -18 -16 -34 -19 -15 -3 -38 -8 -50 -12 -19 -6 -23 -4 -23 13 0 36 32 162 41 162 5 0 23 -29 40 -65z"/> <path d="M1001 1200 c-12 -7 -12 -25 -1 -106 6 -55 19 -121 27 -149 13 -41 24 -215 23 -365 0 -26 60 -38 116 -22 71 20 135 33 166 34 14 1 38 10 52 22 26 21 26 21 16 101 -6 44 -10 100 -9 125 2 74 -12 96 -67 104 -26 3 -75 6 -110 6 -54 0 -64 3 -65 18 -1 9 -4 67 -8 127 l-6 110 -34 3 c-18 2 -38 -1 -44 -7 -6 -6 -16 -7 -27 -1 -9 5 -22 5 -29 0z m290 -377 c1 -16 3 -49 5 -74 5 -56 -7 -69 -71 -77 l-45 -5 0 39 c0 22 -3 55 -6 75 -6 36 -5 37 37 51 67 24 79 22 80 -9z"/> <path d="M2315 1091 c-3 -6 -15 -11 -25 -11 -50 0 -69 -130 -53 -355 7 -94 11 -110 26 -113 10 -2 25 2 34 10 9 7 26 11 39 10 17 -2 27 4 38 27 9 16 14 36 12 43 -2 7 -7 52 -10 99 l-6 87 80 7 c93 8 105 18 95 75 -8 49 -34 67 -73 51 -15 -6 -46 -15 -69 -20 l-42 -9 -3 52 c-2 38 -7 52 -20 54 -9 2 -19 -2 -23 -7z"/> <path d="M2043 957 c-47 -11 -56 -24 -43 -64 16 -53 20 -159 6 -178 -24 -34 -43 -11 -50 61 -9 90 -27 154 -43 154 -8 0 -25 7 -38 16 -13 9 -28 13 -33 10 -5 -3 -13 -50 -17 -103 -4 -54 -11 -120 -16 -146 -9 -51 1 -87 24 -87 7 0 18 -9 24 -19 11 -17 22 -19 100 -16 146 5 248 46 228 92 -4 10 -9 73 -10 140 -1 83 -5 126 -14 137 -15 18 -54 19 -118 3z"/> <path d="M1560 938 c-36 -11 -69 -24 -75 -29 -13 -13 -25 -281 -14 -295 7 -8 21 -9 47 -3 20 5 55 9 77 9 22 0 63 6 90 13 70 18 79 40 60 139 -8 43 -12 98 -8 131 l6 57 -59 -1 c-32 0 -88 -10 -124 -21z m72 -138 c6 -33 4 -50 -8 -68 -22 -33 -29 -21 -31 54 -1 55 1 65 15 62 11 -2 19 -19 24 -48z"/> </g> </svg> 