 <svg  version="1.0" xmlns="http://www.w3.org/2000/svg"  width="300.000000pt" height="307.000000pt" viewBox="0 0 300.000000 307.000000"  preserveAspectRatio="xMidYMid meet">  <g transform="translate(0.000000,307.000000) scale(0.100000,-0.100000)" fill="#ffffff" stroke="none"> <path d="M1580 2790 c-66 -11 -116 -35 -135 -63 -16 -25 -17 -25 -35 -7 -10 10 -40 22 -66 26 -120 18 -459 -23 -599 -73 -226 -80 -409 -287 -464 -524 -75 -320 -75 -876 -1 -1195 61 -263 246 -463 501 -543 271 -85 905 -92 1254 -14 254 56 469 257 544 508 31 102 59 304 72 512 18 286 -12 677 -63 828 -84 247 -283 434 -538 504 -147 41 -360 60 -470 41z m-40 -184 c30 -9 136 -27 235 -41 99 -14 206 -32 239 -40 186 -47 350 -216 400 -410 70 -280 69 -958 -3 -1168 -63 -182 -204 -326 -370 -378 -116 -35 -408 -69 -606 -69 -126 0 -426 26 -525 46 -207 41 -380 185 -448 374 -94 257 -92 1028 3 1270 54 137 150 241 283 308 93 46 187 65 402 82 167 13 243 31 268 65 l17 23 25 -23 c14 -13 50 -30 80 -39z"/> <path d="M1385 2116 c-54 -24 -70 -51 -70 -118 0 -55 3 -62 33 -89 27 -25 41 -29 88 -29 50 0 59 3 90 34 39 39 44 80 16 135 -31 63 -101 92 -157 67z"/> <path d="M1338 1578 c-16 -12 -17 -39 -10 -343 l7 -329 43 -8 c24 -4 60 -4 80 0 l36 8 3 164 c5 277 9 332 33 414 18 60 21 79 11 89 -18 18 -181 22 -203 5z"/> </g> </svg> 