 <svg  version="1.0" xmlns="http://www.w3.org/2000/svg"  width="300.000000pt" height="307.000000pt" viewBox="0 0 300.000000 307.000000"  preserveAspectRatio="xMidYMid meet">  <g transform="translate(0.000000,307.000000) scale(0.100000,-0.100000)" fill="#ffffff" stroke="none"> <path d="M413 2778 c-26 -12 -53 -65 -53 -102 0 -15 6 -42 14 -61 11 -26 23 -36 54 -44 28 -8 340 -8 1068 -1 566 6 1056 8 1089 4 81 -8 108 11 109 80 1 38 -4 51 -22 66 -21 18 -58 19 -730 19 -716 1 -1023 10 -1277 36 -162 17 -221 18 -252 3z"/> <path d="M1650 2035 c-11 -13 -15 -43 -15 -102 0 -118 -2 -117 195 -109 85 4 310 9 500 12 190 3 349 9 354 14 12 12 12 128 0 139 -5 5 -180 11 -389 15 -285 4 -401 9 -465 21 -150 28 -164 29 -180 10z"/> <path d="M407 2023 c-66 -22 -139 -90 -168 -155 -22 -51 -23 -65 -30 -408 -4 -195 -10 -465 -14 -600 l-8 -246 27 -61 c34 -75 93 -133 171 -170 58 -27 65 -28 225 -28 182 0 214 8 248 64 16 26 19 28 37 15 64 -47 180 20 234 136 l26 55 0 605 c0 604 0 605 -22 646 -34 63 -66 97 -125 129 l-53 30 -250 2 c-210 2 -258 0 -298 -14z m535 -166 c58 -40 59 -48 56 -661 l-3 -558 -51 -47 c-29 -25 -57 -56 -63 -69 l-12 -22 -22 24 c-34 36 -79 47 -232 53 -85 3 -150 11 -166 19 -56 28 -56 31 -62 631 -6 616 -7 600 63 636 31 16 60 17 250 15 189 -3 218 -5 242 -21z"/> <path d="M1659 1301 c-22 -17 -24 -27 -24 -100 0 -69 3 -84 21 -102 l22 -21 311 11 c171 7 395 11 497 10 123 -1 189 2 196 9 13 13 15 122 4 140 -5 9 -85 12 -294 12 -158 0 -339 5 -402 10 -106 9 -262 34 -293 46 -8 3 -25 -4 -38 -15z"/> <path d="M1654 559 c-25 -28 -28 -169 -4 -193 13 -14 78 -15 525 -8 l509 7 8 37 c4 21 4 55 0 75 l-8 38 -344 6 c-372 7 -429 11 -562 40 -108 23 -101 23 -124 -2z"/> </g> </svg> 