 <svg  version="1.0" xmlns="http://www.w3.org/2000/svg"  width="300.000000pt" height="300.000000pt" viewBox="0 0 300.000000 300.000000"  preserveAspectRatio="xMidYMid meet">  <g transform="translate(0.000000,300.000000) scale(0.100000,-0.100000)" fill="#ffffff" stroke="none"> <path d="M1325 2685 c-432 -57 -714 -289 -820 -675 -15 -52 -35 -112 -46 -132 -39 -72 -42 -265 -7 -349 9 -20 27 -45 42 -56 24 -19 26 -27 26 -97 0 -162 56 -325 159 -460 29 -37 51 -69 49 -70 -2 -2 -18 -8 -36 -16 -66 -26 -112 -105 -112 -192 0 -21 -4 -38 -8 -38 -18 0 -94 -75 -112 -111 -52 -102 16 -219 128 -219 37 0 38 -6 17 -77 -8 -27 -21 -82 -28 -121 l-14 -72 36 0 36 0 18 85 c23 112 69 248 122 363 l44 92 44 -30 c90 -61 250 -110 358 -110 59 0 75 12 63 45 -7 17 -22 21 -106 29 -93 10 -211 52 -290 105 -54 37 -77 47 -89 40 -23 -12 -54 -64 -99 -166 -40 -90 -62 -112 -113 -113 -37 0 -77 40 -77 78 0 33 58 100 109 127 29 15 31 19 31 73 0 72 24 121 70 145 47 24 96 16 162 -27 142 -90 315 -140 538 -157 224 -16 430 11 606 81 91 36 118 37 149 5 53 -52 19 -104 -93 -139 -68 -21 -77 -27 -80 -50 -2 -17 2 -28 13 -32 20 -8 99 12 147 36 36 19 36 19 51 -3 44 -70 107 -251 136 -392 l17 -80 37 -3 c35 -3 37 -1 32 20 -2 13 -12 58 -21 102 -20 101 -71 252 -117 346 -33 65 -36 79 -31 125 7 57 -9 102 -49 131 l-23 17 87 86 c132 132 197 264 226 461 26 175 27 229 5 288 -11 29 -17 52 -12 52 4 0 16 17 26 38 13 28 17 62 18 142 0 117 -18 195 -58 251 -13 19 -42 70 -64 114 -197 394 -590 576 -1097 510z m325 -65 c281 -35 495 -157 639 -364 54 -78 63 -103 34 -91 -92 35 -332 65 -529 65 -406 0 -921 -98 -1166 -221 l-57 -29 16 53 c47 160 165 326 293 414 126 86 283 142 470 167 132 18 193 19 300 6z m-53 -531 c7 -30 16 -95 19 -146 l7 -91 -49 -7 c-27 -3 -78 -10 -114 -15 -35 -5 -66 -8 -68 -5 -23 22 -31 292 -9 300 15 6 178 23 192 20 5 -1 16 -26 22 -56z m305 -24 c14 -44 28 -109 30 -144 l3 -65 -115 1 -115 0 -12 99 c-6 55 -16 121 -21 147 l-10 48 107 -3 106 -3 27 -80z m210 69 c20 -3 43 -13 52 -23 28 -31 58 -132 63 -213 7 -89 12 -86 -93 -68 -32 6 -74 13 -91 16 -32 5 -33 6 -33 58 0 45 -15 116 -46 224 -7 24 -6 24 52 17 32 -3 75 -8 96 -11z m-818 -146 c3 -68 9 -135 12 -149 5 -24 2 -28 -28 -35 -18 -4 -72 -8 -120 -8 l-87 -1 -7 53 c-6 50 0 160 12 208 4 17 19 24 82 37 42 8 89 15 103 16 l26 1 7 -122z m1044 93 c67 -25 76 -32 103 -89 18 -37 24 -69 27 -159 l5 -113 -74 35 c-40 19 -79 35 -86 35 -10 0 -13 23 -13 89 0 61 -6 109 -20 153 -11 34 -20 64 -20 66 0 7 31 0 78 -17z m-1345 -168 l-2 -147 -38 -26 c-41 -28 -161 -75 -170 -67 -2 3 -9 36 -13 74 -9 70 -6 124 11 204 l10 46 92 28 c97 28 112 33 112 34 0 1 -1 -65 -2 -146z m-298 -75 c0 -68 3 -141 8 -163 l8 -40 -87 -45 c-47 -25 -90 -46 -94 -48 -13 -5 -30 83 -30 155 0 77 14 140 38 167 12 12 133 87 157 96 1 0 1 -55 0 -122z m1330 -67 l40 -7 -30 -16 c-63 -34 -145 -150 -145 -204 0 -13 -1 -24 -2 -24 -2 0 -32 10 -68 21 -89 28 -215 28 -295 0 -60 -21 -74 -18 -75 17 0 26 -43 98 -82 138 l-40 42 41 7 c181 30 553 45 656 26z m-901 -67 c27 -10 20 -53 -11 -65 -37 -14 -90 -55 -110 -85 -8 -14 -18 -50 -22 -81 -6 -58 -24 -82 -55 -70 -12 5 -16 19 -16 59 1 95 54 178 142 222 60 30 52 28 72 20z m1074 -6 c23 -23 13 -47 -25 -63 -73 -31 -118 -92 -130 -176 -6 -41 -13 -55 -27 -57 -28 -6 -39 12 -38 63 2 90 59 177 144 219 60 30 60 30 76 14z m-1374 -143 c-44 -143 29 -306 169 -375 88 -43 149 -48 238 -20 114 37 205 134 224 242 6 32 13 39 58 59 70 31 224 33 309 5 56 -20 57 -21 68 -69 47 -221 319 -326 503 -195 l29 21 -7 -34 c-12 -56 -81 -190 -129 -251 -114 -143 -312 -246 -536 -279 -124 -18 -432 -7 -537 20 -401 100 -623 359 -623 725 l0 84 53 30 c54 30 190 92 194 88 1 -1 -5 -24 -13 -51z"/> <path d="M1602 1363 c-89 -44 -128 -185 -77 -283 50 -97 165 -125 247 -60 38 30 68 101 68 162 -1 145 -123 238 -238 181z m116 -69 c75 -52 66 -197 -15 -231 -40 -16 -74 -4 -105 38 -73 99 26 259 120 193z"/> <path d="M1705 516 c-19 -14 -18 -19 34 -207 50 -185 60 -208 88 -209 35 0 32 37 -18 220 -58 216 -64 226 -104 196z"/> <path d="M1547 507 c-12 -9 -21 -60 -37 -222 -20 -197 -20 -210 -4 -222 17 -12 54 -2 54 16 0 4 9 88 20 187 11 98 20 191 20 206 0 34 -30 53 -53 35z"/> <path d="M1103 278 c-15 -20 -30 -65 -53 -155 -28 -115 -27 -123 14 -123 31 0 34 3 40 38 4 20 19 79 33 129 21 76 23 96 13 108 -15 18 -34 19 -47 3z"/> </g> </svg> 