 <svg  version="1.0" xmlns="http://www.w3.org/2000/svg"  width="300.000000pt" height="132.000000pt" viewBox="0 0 300.000000 132.000000"  preserveAspectRatio="xMidYMid meet">  <g transform="translate(0.000000,132.000000) scale(0.100000,-0.100000)" fill="#ffffff" stroke="none"> <path d="M934 1108 c-5 -7 -23 -42 -42 -78 -51 -97 -46 -94 -148 -83 -48 5 -112 6 -143 2 -45 -6 -57 -5 -66 8 -7 10 -19 14 -29 10 -9 -4 -16 -3 -16 1 0 4 -21 15 -46 26 -25 10 -59 30 -75 43 -31 27 -59 25 -59 -4 0 -10 14 -45 30 -78 17 -33 30 -67 30 -77 0 -9 4 -20 10 -23 6 -4 4 -18 -7 -38 -10 -19 -17 -56 -17 -89 -1 -51 2 -61 30 -88 17 -17 48 -37 70 -45 32 -11 38 -17 36 -37 -2 -12 -6 -25 -9 -28 -3 -3 -39 13 -81 36 -59 31 -78 47 -81 65 -4 29 -17 39 -51 39 -44 0 -49 -15 -26 -83 12 -34 25 -68 30 -75 11 -17 84 -50 161 -72 l60 -17 7 -45 c5 -42 32 -98 46 -98 3 0 13 7 22 15 10 9 42 15 88 17 41 2 74 8 76 14 2 6 36 14 76 18 84 9 94 21 74 96 -7 26 -15 77 -19 113 -6 53 -5 67 6 67 8 0 39 11 69 23 l55 23 0 -119 0 -118 45 -40 c25 -22 56 -51 70 -64 84 -77 237 0 288 145 12 36 22 73 22 83 0 16 16 22 50 19 8 -1 26 1 39 4 23 5 23 8 17 62 -11 90 -11 90 -178 55 l-143 -29 -7 -49 c-4 -27 -5 -52 -2 -57 3 -4 30 -8 60 -8 51 0 54 -1 54 -26 0 -29 -51 -81 -89 -91 -48 -12 -101 78 -101 171 0 87 48 162 130 204 19 9 35 22 37 27 1 6 -13 28 -32 49 l-33 40 -40 -18 c-22 -10 -55 -33 -73 -52 -18 -19 -38 -34 -43 -34 -6 0 -23 16 -38 34 -26 33 -28 41 -28 137 0 85 -3 104 -17 115 -23 17 -40 17 -49 2z"/> <path d="M2094 902 c-27 -21 -37 -92 -35 -254 1 -65 -2 -118 -7 -118 -5 0 -9 -30 -10 -66 -1 -71 14 -90 47 -60 10 9 22 16 28 16 21 0 44 80 43 153 0 22 4 27 25 27 27 0 28 -3 29 -92 1 -26 6 -48 11 -49 6 0 18 -8 28 -17 29 -26 51 -4 55 54 l3 49 20 -42 c24 -54 57 -76 95 -67 44 10 94 44 94 63 0 9 5 22 12 29 9 9 9 15 0 24 -7 7 -12 38 -12 69 0 64 -10 74 -64 64 -17 -4 -44 -2 -59 4 -23 9 -31 7 -47 -9 -11 -11 -20 -30 -21 -42 0 -13 -4 -32 -8 -43 -5 -11 -8 45 -7 127 1 124 -2 150 -15 164 -15 15 -19 15 -48 0 -25 -14 -31 -23 -31 -50 0 -75 -12 -126 -30 -126 -13 0 -19 12 -23 51 -4 28 -4 64 0 80 6 31 -18 79 -40 79 -6 0 -22 -8 -33 -18z m329 -301 c2 -10 1 -25 -4 -32 -6 -10 -9 -4 -9 19 0 36 5 42 13 13z"/> <path d="M1603 887 c-4 -8 -18 -19 -29 -25 -19 -10 -21 -20 -20 -74 1 -70 17 -85 51 -48 10 11 27 20 37 20 26 0 31 20 21 82 -7 43 -12 54 -30 56 -12 2 -25 -3 -30 -11z"/> <path d="M2579 853 c-7 -17 -9 -74 -5 -148 2 -66 1 -140 -3 -164 -7 -35 -6 -46 9 -61 10 -10 21 -27 25 -39 7 -23 21 -26 58 -12 14 6 54 13 89 16 90 10 102 23 72 83 -8 18 -15 46 -15 64 0 44 -19 130 -32 147 -8 10 -26 11 -69 7 l-58 -7 0 57 c0 42 -4 60 -17 70 -27 20 -42 17 -54 -13z m126 -268 c0 -33 -4 -41 -21 -43 -18 -3 -21 3 -22 34 -2 44 4 56 26 52 13 -2 17 -14 17 -43z"/> <path d="M1750 755 c0 -9 -7 -18 -16 -22 -13 -5 -15 -15 -10 -51 5 -36 2 -47 -11 -58 -12 -9 -13 -13 -5 -14 8 0 13 -13 12 -37 -1 -74 10 -166 21 -179 6 -8 24 -14 39 -14 30 0 35 16 47 140 2 30 6 56 7 57 8 8 113 9 123 1 7 -6 18 -5 30 3 22 13 29 82 9 98 -16 13 -82 17 -123 7 -32 -7 -33 -6 -33 22 0 24 -7 34 -32 46 -39 20 -58 20 -58 1z"/> <path d="M1595 688 c-36 -13 -47 -28 -34 -44 11 -13 6 -143 -6 -200 -9 -40 3 -45 78 -31 78 14 83 27 57 149 -11 51 -20 103 -20 116 0 25 -24 28 -75 10z"/> </g> </svg> 