 <svg  version="1.0" xmlns="http://www.w3.org/2000/svg"  width="228.000000pt" height="230.000000pt" viewBox="0 0 228.000000 230.000000"  preserveAspectRatio="xMidYMid meet">  <g transform="translate(0.000000,230.000000) scale(0.100000,-0.100000)" fill="#ffffff" stroke="none"> <path d="M677 1843 c-26 -30 -37 -78 -37 -170 0 -74 -3 -87 -30 -129 -39 -62 -54 -140 -46 -237 17 -207 115 -337 293 -391 l61 -19 -9 -31 c-5 -17 -9 -52 -9 -78 l0 -48 -48 0 c-65 0 -112 27 -142 82 -32 59 -47 75 -94 110 -52 37 -102 38 -118 2 -15 -33 -3 -52 47 -79 24 -13 47 -37 66 -70 55 -98 119 -140 229 -152 l60 -6 0 -44 c0 -59 14 -83 48 -83 48 0 52 12 52 176 0 150 0 153 30 209 28 53 29 60 16 80 -11 17 -31 25 -85 33 -193 32 -281 130 -289 323 -5 111 6 154 50 205 32 36 33 47 22 131 -3 29 -4 63 0 77 6 23 8 24 43 14 21 -5 65 -26 97 -46 58 -35 60 -35 105 -23 80 23 227 25 324 6 l86 -17 53 32 c29 18 69 38 90 46 50 17 53 10 44 -98 -7 -80 -6 -81 28 -132 44 -65 58 -138 45 -232 -23 -165 -115 -255 -291 -286 -35 -6 -69 -15 -75 -20 -19 -16 -15 -63 6 -82 29 -26 41 -100 41 -244 0 -86 4 -132 12 -140 17 -17 54 -15 73 5 15 14 16 37 13 182 -3 91 -8 173 -12 182 -6 14 3 20 46 34 190 63 291 209 292 425 1 99 -15 164 -55 222 -15 20 -19 45 -19 110 0 92 -12 149 -37 174 -28 27 -111 14 -202 -32 -64 -33 -83 -39 -107 -32 -57 16 -227 20 -304 6 l-75 -13 -77 38 c-96 48 -183 61 -211 30z"/> </g> </svg> 