 <svg  version="1.0" xmlns="http://www.w3.org/2000/svg"  width="300.000000pt" height="187.000000pt" viewBox="0 0 300.000000 187.000000"  preserveAspectRatio="xMidYMid meet">  <g transform="translate(0.000000,187.000000) scale(0.100000,-0.100000)" fill="#ffffff" stroke="none"> <path d="M1314 1682 c-32 -21 -66 -47 -74 -57 -24 -29 -112 -91 -212 -149 -123 -71 -231 -141 -247 -160 -8 -9 -17 -16 -21 -16 -4 0 -21 -11 -36 -25 -38 -32 -130 -87 -202 -120 -31 -14 -66 -31 -77 -37 -11 -7 -33 -18 -48 -26 -16 -8 -32 -24 -37 -36 -4 -13 -21 -29 -37 -37 -76 -40 -103 -61 -103 -84 0 -13 5 -27 11 -31 6 -3 19 -26 29 -50 21 -48 50 -60 50 -21 0 28 24 52 105 103 33 20 83 54 110 75 28 20 88 58 135 84 143 79 282 164 345 210 33 24 63 44 66 44 4 1 33 19 65 41 91 63 125 85 177 114 26 15 47 31 47 36 0 8 148 -41 226 -75 92 -40 105 -45 114 -45 5 0 80 -33 167 -74 87 -40 190 -85 228 -99 39 -14 102 -38 140 -53 39 -14 111 -41 160 -59 50 -18 103 -38 118 -44 48 -19 67 -14 74 19 3 17 19 41 36 55 38 29 29 44 -41 70 -59 21 -112 43 -134 55 -10 6 -24 10 -31 10 -11 0 -138 50 -202 80 -11 5 -60 26 -110 46 -49 20 -94 41 -99 46 -6 4 -16 8 -24 8 -15 0 -178 62 -222 85 -14 7 -92 39 -174 71 -82 32 -155 64 -162 71 -21 21 -48 15 -110 -25z m572 -298 c18 -14 18 -14 -6 -3 -31 14 -36 19 -24 19 6 0 19 -7 30 -16z"/> <path d="M2615 1055 c-33 -8 -76 -14 -95 -15 -45 0 -53 -7 -69 -56 -11 -33 -11 -64 -3 -152 7 -65 8 -122 3 -140 -5 -17 -7 -33 -4 -36 3 -2 -1 -28 -8 -55 -19 -75 -10 -79 103 -46 51 15 111 32 133 38 22 6 42 13 44 14 3 2 4 33 4 69 -1 75 -13 95 -43 76 -27 -17 -67 -15 -74 3 -4 10 3 16 22 20 63 13 77 27 80 82 3 48 2 51 -25 58 -28 7 -28 7 -5 18 13 6 22 19 22 32 0 11 4 25 10 31 13 13 -3 69 -21 71 -8 0 -41 -5 -74 -12z m5 -145 c-20 -13 -33 -13 -25 0 3 6 14 10 23 10 15 0 15 -2 2 -10z"/> <path d="M2210 1014 c-69 -11 -156 -27 -255 -48 -60 -13 -176 -32 -258 -41 -212 -24 -191 -10 -182 -124 11 -144 13 -167 28 -286 11 -81 11 -112 3 -117 -8 -6 -7 -11 4 -18 31 -21 60 -22 97 -3 l38 18 -3 190 c-1 105 1 195 5 201 5 6 40 14 79 18 l71 7 8 -103 c4 -57 8 -132 9 -168 l1 -65 43 -9 c27 -6 47 -5 53 1 10 10 16 195 9 302 l-4 64 35 12 c19 7 67 15 108 19 l74 6 -5 -57 c-3 -32 -1 -85 3 -118 5 -33 12 -87 15 -120 3 -33 9 -64 15 -70 9 -9 134 7 146 19 3 3 -2 49 -11 103 -8 54 -20 156 -26 227 -8 95 -15 135 -27 148 -16 18 -24 19 -73 12z"/> <path d="M1015 941 c-49 -12 -91 -38 -110 -67 -14 -22 -17 -45 -16 -114 l2 -88 -63 -11 c-136 -24 -183 -29 -189 -19 -4 6 -10 42 -13 82 -18 196 -20 200 -84 166 -20 -11 -42 -20 -47 -20 -23 0 -116 -51 -122 -67 -4 -9 0 -64 7 -122 7 -58 14 -167 15 -241 2 -177 11 -222 47 -234 19 -7 35 -6 50 2 13 7 45 16 71 21 27 5 54 14 60 20 7 7 12 46 12 99 l0 87 95 20 c53 12 110 27 128 34 18 8 35 11 38 9 2 -3 6 -37 8 -76 4 -80 7 -87 45 -106 23 -12 35 -12 81 -1 30 8 67 17 82 20 15 3 29 13 32 23 4 10 1 72 -5 138 -7 65 -14 193 -18 284 l-6 165 -35 2 c-19 1 -48 -2 -65 -6z m55 -45 c0 -3 -4 -8 -10 -11 -5 -3 -10 -1 -10 4 0 6 5 11 10 11 6 0 10 -2 10 -4z m-128 -52 c-7 -12 -11 -13 -17 -4 -4 7 -2 16 6 21 18 11 23 4 11 -17z m-468 -219 c3 -8 1 -15 -4 -15 -6 0 -10 7 -10 15 0 8 2 15 4 15 2 0 6 -7 10 -15z m493 -282 c-4 -3 -7 0 -7 7 0 7 3 10 7 7 3 -4 3 -10 0 -14z"/> <path d="M1321 700 c-52 -16 -99 -34 -104 -39 -6 -6 -21 -11 -34 -11 -27 0 -26 4 -13 -92 5 -40 11 -102 13 -136 3 -41 9 -67 18 -73 20 -13 83 -10 169 7 41 8 85 16 98 18 37 4 71 44 68 80 -2 17 -6 38 -9 46 -11 25 -25 113 -21 125 3 6 -4 33 -15 58 -25 57 -35 58 -170 17z m59 -154 c0 -25 -7 -40 -26 -55 -42 -33 -54 -27 -54 24 0 47 15 64 58 65 19 0 22 -5 22 -34z"/> </g> </svg> 