 <svg  version="1.0" xmlns="http://www.w3.org/2000/svg"  width="300.000000pt" height="307.000000pt" viewBox="0 0 300.000000 307.000000"  preserveAspectRatio="xMidYMid meet">  <g transform="translate(0.000000,307.000000) scale(0.100000,-0.100000)" fill="#ffffff" stroke="none"> <path d="M1344 2799 c-213 -150 -404 -351 -687 -724 -83 -110 -175 -226 -205 -257 -30 -31 -51 -61 -48 -66 3 -4 -4 -16 -15 -25 -19 -17 -19 -30 -15 -615 3 -404 8 -616 16 -657 12 -62 39 -124 62 -142 21 -16 1879 18 1962 37 53 12 86 47 97 103 12 69 -7 379 -36 567 -60 394 -80 640 -55 705 9 23 4 32 -54 93 -90 94 -118 129 -303 374 -183 243 -291 363 -404 449 -43 32 -94 79 -116 105 -94 113 -107 117 -199 53z m205 -222 c132 -96 239 -214 464 -512 75 -99 159 -208 187 -241 l50 -61 -841 -8 c-462 -4 -842 -5 -845 -2 -3 2 12 24 32 48 20 24 88 113 150 196 229 306 409 506 579 640 l89 71 40 -45 c22 -25 64 -63 95 -86z m744 -1049 c6 -122 23 -258 71 -583 31 -207 38 -448 14 -472 -13 -12 -69 -16 -331 -20 l-315 -6 -7 151 c-4 83 -4 186 -1 229 4 43 3 143 -2 221 -8 132 -11 146 -33 168 -33 32 -103 44 -264 44 -117 0 -135 -2 -157 -20 -64 -49 -82 -180 -76 -541 l4 -266 -316 -7 c-173 -4 -324 -8 -335 -9 -51 -5 -61 122 -57 731 l3 493 427 -3 c462 -3 1341 8 1350 16 14 14 19 -14 25 -126z m-689 -396 c3 -5 6 -161 7 -348 l1 -339 -145 -3 -145 -3 -6 63 c-3 35 -8 192 -11 351 l-6 287 150 0 c82 0 152 -4 155 -8z"/> </g> </svg> 