 <svg  version="1.0" xmlns="http://www.w3.org/2000/svg"  width="300.000000pt" height="100.000000pt" viewBox="0 0 300.000000 100.000000"  preserveAspectRatio="xMidYMid meet">  <g transform="translate(0.000000,100.000000) scale(0.100000,-0.100000)" fill="#ffffff" stroke="none"> <path d="M2676 954 c-13 -13 -16 -28 -12 -73 3 -31 8 -99 11 -151 2 -52 7 -110 11 -127 6 -29 9 -32 33 -26 14 3 28 8 31 10 8 7 0 315 -8 348 -10 35 -41 44 -66 19z"/> <path d="M2508 878 c-2 -13 -1 -34 2 -48 5 -22 12 -25 51 -28 l46 -3 1 46 c0 42 -1 45 -26 45 -15 0 -37 3 -48 6 -17 4 -22 0 -26 -18z"/> <path d="M2913 855 c-11 -8 -47 -21 -79 -30 -31 -8 -58 -16 -59 -17 -6 -7 15 -212 22 -219 8 -8 80 9 141 32 23 9 28 25 13 47 -6 10 -18 11 -49 3 -34 -7 -42 -6 -42 5 0 8 10 14 26 14 14 0 39 8 55 17 27 16 29 21 29 84 0 52 -4 68 -16 73 -20 8 -16 8 -41 -9z m7 -95 c0 -11 -3 -20 -7 -20 -5 -1 -27 -5 -50 -9 -39 -7 -43 -6 -43 11 0 11 5 18 12 16 7 -3 24 1 38 9 35 18 50 16 50 -7z"/> <path d="M2025 841 c-95 -23 -98 -47 -45 -324 6 -32 8 -71 5 -87 -8 -36 6 -44 51 -30 32 11 35 15 29 39 -4 14 -9 33 -11 41 -2 8 -6 25 -9 36 -6 19 0 24 43 38 27 9 58 27 70 39 43 46 54 117 27 180 -12 29 -24 39 -70 56 -31 12 -57 21 -58 20 -1 -1 -15 -4 -32 -8z m92 -58 c-4 -3 -10 -3 -14 0 -3 4 0 7 7 7 7 0 10 -3 7 -7z m-33 -23 c14 -5 30 -18 36 -30 14 -27 0 -52 -48 -85 l-37 -25 -13 62 c-11 57 -11 64 5 75 20 16 25 16 57 3z"/> <path d="M2275 840 c-3 -5 -14 -10 -25 -10 -10 0 -20 -7 -23 -15 -4 -8 1 -93 11 -189 l16 -175 31 6 c46 8 80 27 78 43 -1 8 -8 42 -17 75 -8 33 -12 63 -10 67 3 4 21 10 41 14 46 9 58 -7 68 -82 l7 -55 36 3 c32 3 38 7 43 33 4 17 7 25 8 18 1 -13 36 -6 68 14 20 13 21 20 16 86 -3 40 -8 75 -12 79 -3 4 -25 2 -49 -4 -32 -8 -41 -15 -38 -27 11 -38 18 -131 9 -131 -10 0 -28 47 -38 100 -16 85 -31 93 -104 55 -73 -37 -81 -34 -81 24 0 69 -16 102 -35 71z m52 -302 c-3 -8 -6 -5 -6 6 -1 11 2 17 5 13 3 -3 4 -12 1 -19z"/> <path d="M1641 620 c-18 -4 -51 -16 -72 -26 -39 -17 -40 -18 -34 -63 7 -55 25 -121 38 -138 11 -14 35 -10 120 19 53 19 57 23 57 52 -1 53 -20 120 -42 144 -12 12 -24 22 -27 21 -3 -1 -21 -5 -40 -9z m42 -84 c4 -6 5 -20 2 -31 -2 -11 -5 -26 -5 -33 0 -21 -47 -37 -65 -22 -20 17 -19 69 2 92 17 19 51 16 66 -6z"/> <path d="M1261 609 c-22 -9 -23 -13 -17 -57 3 -26 9 -59 12 -73 5 -24 2 -28 -38 -40 -43 -14 -43 -14 -41 -59 3 -38 1 -41 -7 -21 -6 14 -16 21 -24 18 -11 -4 -16 3 -18 26 -2 25 -8 33 -27 35 -62 9 -127 -43 -138 -113 -7 -40 -7 -40 -19 29 -8 38 -18 74 -23 79 -7 7 -29 3 -66 -11 -69 -27 -65 -26 -65 -2 0 24 -24 38 -56 32 -42 -8 -55 -37 -41 -97 7 -27 6 -28 -7 -12 -12 16 -20 17 -48 9 -131 -39 -123 -35 -128 -72 -9 -65 -23 -5 -44 203 -6 52 -38 77 -85 66 -20 -4 -54 -10 -76 -13 -22 -3 -56 -10 -75 -15 -19 -6 -55 -14 -80 -17 -55 -7 -63 -12 -56 -30 3 -8 -1 -14 -8 -14 -8 0 -16 -10 -19 -22 -7 -27 18 -246 36 -318 14 -52 16 -55 43 -52 37 4 64 36 64 76 -1 32 -16 158 -26 212 -5 28 -3 33 25 42 l31 11 2 -47 c0 -26 2 -51 3 -57 2 -5 3 -43 4 -82 1 -65 3 -73 20 -73 11 0 22 -4 25 -9 3 -5 15 -7 27 -4 18 5 20 11 15 42 -9 62 -26 235 -22 238 2 2 17 8 35 13 30 8 31 8 31 -24 0 -18 9 -68 20 -112 12 -43 22 -91 24 -105 2 -15 10 -36 18 -47 14 -21 15 -21 44 -3 17 10 37 15 48 11 10 -3 67 3 127 15 l109 20 0 61 0 61 41 12 c23 7 44 10 47 6 3 -3 6 -30 6 -60 1 -30 3 -55 5 -55 27 0 80 27 84 42 5 19 6 19 26 -1 12 -12 27 -21 34 -21 15 0 58 28 73 49 6 8 19 16 30 17 10 2 29 5 42 9 20 5 23 3 17 -14 -12 -38 51 -39 142 -3 l42 17 -4 55 c-18 245 -21 261 -53 259 -9 0 -28 -5 -41 -10z m-854 -201 c-3 -7 -5 -2 -5 12 0 14 2 19 5 13 2 -7 2 -19 0 -25z m358 12 c3 -5 4 -10 1 -10 -3 0 -8 5 -11 10 -3 6 -4 10 -1 10 3 0 8 -4 11 -10z m472 -7 c-4 -3 -10 -3 -14 0 -3 4 0 7 7 7 7 0 10 -3 7 -7z m58 -49 c7 -38 -6 -57 -31 -47 -32 12 -27 83 6 83 13 0 20 -10 25 -36z m-235 -21 c0 -18 -28 -53 -42 -53 -13 0 -9 24 8 48 18 26 34 29 34 5z m-923 -30 c-4 -3 -7 0 -7 7 0 7 3 10 7 7 3 -4 3 -10 0 -14z m512 -84 c1 -16 -62 -43 -73 -31 -3 3 -6 22 -6 43 0 35 3 39 33 47 29 8 33 6 38 -17 4 -14 7 -33 8 -42z m-89 42 c0 -6 -4 -12 -8 -15 -5 -3 -9 1 -9 9 0 8 4 15 9 15 4 0 8 -4 8 -9z m154 -31 c4 -25 3 -31 -4 -20 -5 8 -10 26 -10 39 0 32 6 24 14 -19z m33 13 c-4 -3 -7 0 -7 7 0 7 3 10 7 7 3 -4 3 -10 0 -14z"/> <path d="M1888 584 c-3 -3 -28 -8 -54 -12 -44 -6 -48 -10 -56 -41 -11 -41 -8 -44 25 -32 15 6 48 12 74 14 52 5 58 12 44 50 -10 26 -21 33 -33 21z"/> <path d="M1445 475 c-16 -7 -38 -16 -47 -19 -10 -3 -18 -15 -18 -26 0 -23 16 -25 75 -9 45 13 55 23 48 50 -6 22 -17 23 -58 4z"/> </g> </svg> 