 <svg  version="1.0" xmlns="http://www.w3.org/2000/svg"  width="300.000000pt" height="142.000000pt" viewBox="0 0 300.000000 142.000000"  preserveAspectRatio="xMidYMid meet">  <g transform="translate(0.000000,142.000000) scale(0.100000,-0.100000)" fill="#ffffff" stroke="none"> <path d="M853 1205 c-24 -8 -75 -15 -114 -17 -39 -1 -73 -6 -75 -10 -3 -5 -17 -8 -32 -8 -15 0 -48 -7 -74 -14 -25 -8 -48 -12 -51 -10 -3 3 -22 -5 -44 -19 l-38 -24 1 -194 c2 -244 13 -606 21 -625 3 -8 13 -14 24 -14 10 0 22 -7 26 -15 13 -23 68 -9 84 22 9 17 13 63 12 151 l-1 127 51 0 c53 0 138 14 198 33 58 19 190 43 218 41 14 -2 36 3 48 9 24 13 24 3 7 282 -7 113 -8 145 -5 185 0 11 0 40 -2 65 -4 51 10 46 -127 40 -30 -1 -62 0 -70 3 -8 3 -34 -1 -57 -8z m-363 -137 c0 -16 -3 -19 -11 -11 -6 6 -8 16 -5 22 11 17 16 13 16 -11z m499 10 c-1 -7 1 -30 6 -51 4 -21 8 -94 9 -163 1 -117 0 -125 -19 -129 -11 -2 -67 -9 -125 -15 -58 -6 -121 -15 -140 -20 -19 -5 -56 -12 -81 -15 l-47 -7 -12 99 c-6 54 -10 120 -8 147 3 46 4 49 43 61 22 7 85 22 140 34 55 12 111 24 125 27 14 3 38 8 53 11 16 3 31 12 34 19 6 17 25 18 22 2z m78 -35 c-4 -3 -7 0 -7 7 0 7 3 10 7 7 3 -4 3 -10 0 -14z m-457 -13 c0 -5 -8 -10 -17 -10 -15 0 -16 2 -3 10 19 12 20 12 20 0z m-130 -94 c0 -3 -5 -8 -12 -12 -7 -4 -8 -3 -4 4 7 12 16 16 16 8z m397 -313 c-4 -3 -10 -3 -14 0 -3 4 0 7 7 7 7 0 10 -3 7 -7z m-40 -9 c-3 -3 -12 -4 -19 -1 -8 3 -5 6 6 6 11 1 17 -2 13 -5z m-310 -301 c-4 -3 -7 0 -7 7 0 7 3 10 7 7 3 -4 3 -10 0 -14z"/> <path d="M2006 927 c-15 -11 -19 -30 -20 -107 -1 -52 3 -135 11 -185 7 -49 12 -111 13 -137 0 -46 7 -55 35 -48 6 1 22 2 38 2 19 -1 27 4 27 17 0 9 5 22 10 27 7 7 8 25 2 50 -5 21 -10 65 -11 97 -2 55 2 63 32 58 12 -2 131 40 141 49 4 5 1 23 -8 41 -9 18 -16 39 -16 47 0 11 -8 13 -37 8 -21 -4 -50 -12 -65 -18 -15 -5 -34 -8 -43 -4 -16 6 -21 56 -5 56 16 0 11 26 -8 43 -22 20 -71 22 -96 4z"/> <path d="M2449 837 l-76 -20 -1 -77 c-1 -42 -6 -97 -10 -122 -6 -31 -5 -50 3 -62 15 -20 35 -21 35 -2 0 16 44 41 90 51 29 6 30 5 30 -28 0 -30 -5 -36 -40 -52 -26 -12 -51 -16 -75 -12 -30 5 -35 3 -35 -14 0 -10 3 -19 8 -19 4 0 13 -14 21 -31 11 -24 18 -29 35 -25 13 3 49 8 81 11 67 7 95 19 95 43 0 9 7 26 15 36 9 11 11 24 6 30 -4 6 -11 45 -15 86 -4 41 -10 78 -14 82 -7 6 -55 -1 -115 -17 -27 -7 -28 -6 -21 21 9 39 8 38 56 26 29 -8 46 -8 53 -1 14 14 15 58 3 92 -12 32 -23 33 -129 4z m38 -194 c-4 -3 -10 -3 -14 0 -3 4 0 7 7 7 7 0 10 -3 7 -7z"/> <path d="M1785 803 c-98 -20 -140 -33 -176 -55 -27 -16 -29 -21 -17 -35 9 -12 12 -48 11 -135 -2 -95 1 -118 12 -118 8 0 16 4 19 9 8 13 84 47 121 55 17 4 38 9 49 13 11 3 16 1 12 -5 -3 -6 -2 -13 4 -17 5 -3 10 -17 10 -29 0 -27 -21 -34 -130 -43 -67 -6 -78 -13 -92 -61 -4 -15 -2 -25 6 -28 16 -6 222 23 262 38 l33 12 -4 104 c-4 126 -13 141 -68 118 -56 -23 -127 -31 -127 -15 0 8 -3 24 -6 36 -5 17 0 22 27 28 17 4 57 8 87 9 l55 2 1 63 c1 36 -3 65 -9 66 -5 1 -41 -4 -80 -12z m-85 -67 c0 -3 -5 -8 -12 -12 -7 -4 -8 -3 -4 4 7 12 16 16 16 8z"/> <path d="M1340 680 c-30 -11 -64 -20 -77 -20 -12 0 -41 -9 -63 -21 l-40 -21 -1 -82 c0 -44 -1 -113 -2 -152 0 -73 7 -99 25 -88 6 4 27 8 47 8 20 1 41 5 48 9 6 4 38 12 70 18 32 6 73 18 92 27 l33 15 -8 61 c-7 58 -10 94 -13 193 -1 41 -21 73 -44 73 -7 -1 -37 -10 -67 -20z m16 -112 c-3 -13 -6 -53 -6 -89 l0 -66 -39 -11 c-70 -22 -70 -22 -70 72 0 77 2 85 22 91 12 5 31 11 42 15 41 16 58 12 51 -12z m-159 -20 c-3 -7 -5 -2 -5 12 0 14 2 19 5 13 2 -7 2 -19 0 -25z m0 -70 c-2 -13 -4 -5 -4 17 -1 22 1 32 4 23 2 -10 2 -28 0 -40z m197 -13 c4 -34 3 -43 -3 -30 -9 19 -15 93 -7 84 2 -2 6 -26 10 -54z"/> </g> </svg> 