 <svg  version="1.0" xmlns="http://www.w3.org/2000/svg"  width="300.000000pt" height="142.000000pt" viewBox="0 0 300.000000 142.000000"  preserveAspectRatio="xMidYMid meet">  <g transform="translate(0.000000,142.000000) scale(0.100000,-0.100000)" fill="#ffffff" stroke="none"> <path d="M1390 1145 c-19 -7 -53 -14 -75 -14 -54 -1 -197 -32 -212 -45 -16 -14 -16 -47 -3 -211 6 -71 8 -172 5 -223 -6 -102 -9 -96 62 -106 38 -6 42 -4 50 22 5 15 8 49 7 75 -2 59 -2 59 153 77 62 7 120 18 129 24 14 11 14 19 -2 86 -13 52 -18 115 -18 203 l0 127 -30 -1 c-17 0 -47 -7 -66 -14z m-9 -162 c6 -16 14 -47 19 -71 7 -38 5 -45 -14 -57 -11 -7 -54 -17 -93 -21 -84 -8 -82 -10 -86 85 l-2 64 55 12 c93 20 109 19 121 -12z"/> <path d="M2018 1133 c-10 -3 -18 -13 -18 -23 0 -14 -7 -18 -32 -16 -27 1 -33 -2 -31 -19 8 -84 4 -186 -7 -200 -10 -12 -11 -37 -5 -103 5 -48 9 -98 10 -112 1 -14 5 -43 9 -65 17 -99 19 -94 -20 -101 -22 -4 -40 -2 -47 5 -6 6 -22 11 -34 11 -21 0 -23 -3 -18 -32 3 -18 9 -53 13 -78 9 -50 1 -48 117 -34 28 3 64 7 80 8 30 2 56 10 85 26 18 9 20 87 2 122 -16 34 -30 111 -37 218 -9 132 -19 160 -56 160 -42 0 -36 24 11 43 44 17 46 23 33 125 -6 54 -22 72 -55 65z"/> <path d="M2220 1098 c-31 -51 -23 -68 58 -121 l74 -49 -91 -93 c-50 -51 -91 -97 -91 -103 0 -16 18 -25 59 -27 33 -2 45 7 153 109 65 61 118 118 118 128 0 36 -35 78 -80 95 -25 9 -70 34 -100 55 -31 21 -61 38 -68 38 -7 0 -21 -15 -32 -32z"/> <path d="M896 1002 c-13 -21 -73 -83 -133 -137 -125 -114 -124 -114 -116 -140 14 -49 82 -112 155 -145 40 -18 97 -48 125 -68 45 -30 56 -34 77 -24 24 10 41 58 30 86 -5 14 -107 86 -122 86 -15 0 -82 51 -82 63 0 7 43 56 95 110 l95 98 -22 32 c-13 18 -28 41 -34 52 -19 33 -41 29 -68 -13z m51 -69 c-4 -3 -7 0 -7 7 0 7 3 10 7 7 3 -4 3 -10 0 -14z"/> <path d="M1582 863 c-5 -10 -5 -55 -1 -103 5 -47 9 -112 10 -145 1 -33 5 -65 10 -71 11 -13 97 -7 116 8 7 6 12 29 11 52 -4 92 -2 96 41 96 49 0 63 17 59 72 -3 42 -4 43 -38 41 -19 0 -47 -4 -62 -8 -25 -6 -28 -5 -28 16 0 39 -14 52 -48 44 -18 -3 -33 -2 -37 4 -9 16 -23 13 -33 -6z"/> </g> </svg> 