 <svg  version="1.0" xmlns="http://www.w3.org/2000/svg"  width="300.000000pt" height="269.000000pt" viewBox="0 0 300.000000 269.000000"  preserveAspectRatio="xMidYMid meet">  <g transform="translate(0.000000,269.000000) scale(0.100000,-0.100000)" fill="#ffffff" stroke="none"> <path d="M350 2447 c-49 -25 -61 -5 302 -492 49 -66 97 -130 106 -142 9 -12 24 -31 32 -43 23 -33 169 -231 195 -265 19 -24 147 -198 200 -271 7 -10 -2 -26 -36 -61 -52 -55 -694 -742 -792 -848 -66 -72 -45 -95 85 -95 57 0 90 5 104 15 28 19 119 114 464 485 85 91 188 200 229 243 l76 78 23 -28 c49 -58 58 -70 96 -125 21 -32 46 -65 55 -75 9 -10 27 -35 41 -55 14 -21 28 -38 33 -38 4 0 7 -4 7 -9 0 -8 186 -262 320 -439 l40 -52 337 0 c224 1 342 5 350 12 21 17 15 51 -15 88 -16 19 -219 288 -451 598 l-422 563 27 32 c14 18 86 95 158 172 73 77 235 250 361 385 126 135 244 262 263 282 28 29 33 42 28 62 -6 26 -7 26 -114 26 l-108 0 -175 -187 c-96 -103 -215 -230 -265 -282 -50 -53 -138 -147 -195 -209 l-104 -113 -20 24 c-11 13 -30 36 -42 53 -139 187 -188 253 -204 274 -11 14 -89 117 -173 230 -122 162 -160 206 -183 211 -15 4 -158 7 -318 8 -215 0 -296 -3 -315 -12z m334 -27 l312 0 303 -404 302 -404 126 136 c70 76 129 139 132 142 4 3 98 104 211 225 113 121 223 239 245 262 l40 42 98 3 c53 2 96 0 95 -4 -2 -4 -63 -71 -137 -150 -74 -79 -196 -208 -270 -288 -197 -209 -306 -325 -384 -408 -49 -51 -67 -76 -60 -85 89 -117 913 -1217 913 -1219 0 -2 -152 -2 -337 -1 l-337 3 -91 122 c-228 306 -386 521 -450 610 -39 53 -73 96 -77 95 -4 -1 -182 -188 -395 -415 l-388 -414 -98 -1 c-53 -1 -97 -1 -97 -1 0 1 19 21 43 45 23 24 141 150 261 279 256 274 459 491 535 572 l53 57 -105 143 c-303 412 -730 988 -757 1020 -34 41 -38 53 -14 44 9 -3 156 -6 328 -6z"/> <path d="M632 2263 c1 -5 69 -96 149 -203 474 -635 845 -1132 984 -1320 88 -118 180 -241 205 -273 l45 -58 163 -2 c89 -1 161 0 160 3 -2 3 -36 48 -75 100 -40 52 -353 469 -696 925 l-624 830 -157 3 c-87 1 -156 -1 -154 -5z m301 -33 c22 -26 1337 -1781 1337 -1785 0 -3 -55 -5 -123 -5 l-122 0 -155 208 c-650 872 -875 1173 -905 1212 -81 106 -275 371 -275 376 0 7 237 1 243 -6z"/> </g> </svg> 