 <svg  version="1.0" xmlns="http://www.w3.org/2000/svg"  width="228.000000pt" height="230.000000pt" viewBox="0 0 228.000000 230.000000"  preserveAspectRatio="xMidYMid meet">  <g transform="translate(0.000000,230.000000) scale(0.100000,-0.100000)" fill="#ffffff" stroke="none"> <path d="M815 1773 c-130 -9 -289 -35 -325 -53 -49 -25 -104 -89 -118 -139 -8 -26 -12 -167 -12 -454 l0 -415 28 -53 c69 -134 204 -163 752 -164 415 0 627 24 711 79 20 13 51 48 70 77 l34 54 3 417 c3 410 2 418 -19 468 -31 71 -104 135 -172 150 -118 26 -347 40 -622 38 -154 -1 -302 -3 -330 -5z m845 -112 c113 -18 138 -28 171 -73 l29 -41 0 -407 c0 -406 0 -407 -23 -441 -31 -48 -79 -67 -204 -85 -152 -21 -639 -30 -827 -15 -257 21 -301 36 -337 115 -17 38 -19 72 -19 421 0 349 2 383 19 421 34 75 79 93 286 114 124 12 812 5 905 -9z"/> <path d="M1032 1418 c-9 -9 -12 -86 -12 -285 0 -259 1 -273 19 -283 11 -5 24 -10 30 -10 13 0 323 256 334 276 15 27 -3 49 -105 134 -231 192 -238 196 -266 168z m168 -214 c44 -36 80 -67 80 -68 0 -4 -141 -119 -157 -130 -10 -6 -13 23 -13 128 0 75 2 136 5 136 3 0 42 -30 85 -66z"/> </g> </svg> 