<?xml version="1.0" standalone="no"?>
<!DOCTYPE svg PUBLIC "-//W3C//DTD SVG 20010904//EN"
 "http://www.w3.org/TR/2001/REC-SVG-20010904/DTD/svg10.dtd">
<svg version="1.0" xmlns="http://www.w3.org/2000/svg"
 width="900.000000pt" height="825.000000pt" viewBox="0 0 900.000000 825.000000"
 preserveAspectRatio="xMidYMid meet">
<metadata>
Created by potrace 1.10, written by Peter Selinger 2001-2011
</metadata>
<g transform="translate(0.000000,825.000000) scale(0.100000,-0.100000)"
fill="#000000" stroke="none">
<path d="M2785 6692 c-129 -44 -201 -123 -225 -248 -27 -136 41 -273 170 -344
l45 -25 1422 -3 1423 -2 5 -23 c3 -12 4 -393 3 -847 l-3 -825 -1255 -5 -1255
-5 -56 -27 c-108 -54 -179 -157 -187 -275 -5 -73 15 -134 65 -204 34 -49 61
-70 128 -104 39 -20 62 -20 1300 -25 l1260 -5 0 -740 0 -740 -1420 -5 -1420
-5 -55 -28 c-68 -35 -82 -47 -124 -111 -63 -95 -69 -223 -14 -328 25 -48 98
-113 156 -138 44 -20 75 -20 1663 -20 l1618 0 55 26 c61 29 122 89 158 156
l23 43 0 2310 c0 1899 -2 2317 -13 2348 -18 50 -84 132 -131 161 -93 59 -1 56
-1715 55 -1453 0 -1575 -2 -1621 -17z"/>
</g>
</svg>
